<?xml version="1.0" encoding="UTF-8"?>
<svg xmlns="http://www.w3.org/2000/svg" width="1024" height="1024" viewBox="0 0 1024 1024">
  <defs>
    <radialGradient id="bg" cx="50%" cy="40%" r="85%">
      <stop offset="0%" stop-color="#14141a"/>
      <stop offset="55%" stop-color="#0b0b10"/>
      <stop offset="100%" stop-color="#040406"/>
    </radialGradient>

    <pattern id="grid" width="48" height="48" patternUnits="userSpaceOnUse">
      <path d="M 48 0 L 0 0 0 48" fill="none" stroke="#ffffff" stroke-opacity="0.10" stroke-width="2"/>
      <path d="M 24 0 L 24 48 M 0 24 L 48 24" fill="none" stroke="#ffffff" stroke-opacity="0.06" stroke-width="2"/>
    </pattern>

    <linearGradient id="violet" x1="6%" y1="50%" x2="94%" y2="50%">
      <stop offset="0%" stop-color="#a78bfa"/>
      <stop offset="55%" stop-color="#8b5cf6"/>
      <stop offset="100%" stop-color="#7c3aed"/>
    </linearGradient>

    <filter id="neonGlow" x="-70%" y="-70%" width="240%" height="240%">
      <feGaussianBlur stdDeviation="6" result="g1"/>
      <feGaussianBlur stdDeviation="16" result="g2"/>
      <feGaussianBlur stdDeviation="30" result="g3"/>
      <feMerge>
        <feMergeNode in="g3"/>
        <feMergeNode in="g2"/>
        <feMergeNode in="g1"/>
        <feMergeNode in="SourceGraphic"/>
      </feMerge>
    </filter>

    <filter id="inner" x="-20%" y="-20%" width="140%" height="140%">
      <feOffset dx="0" dy="10"/>
      <feGaussianBlur stdDeviation="18" result="ob"/>
      <feComposite in="ob" in2="SourceAlpha" operator="arithmetic" k2="-1" k3="1" result="inner"/>
      <feColorMatrix in="inner" type="matrix"
        values="0 0 0 0 0
                0 0 0 0 0
                0 0 0 0 0
                0 0 0 0.55 0"/>
      <feComposite in="SourceGraphic" operator="over"/>
    </filter>
  </defs>

  <rect x="48" y="48" width="928" height="928" rx="180" ry="180" fill="url(#bg)" filter="url(#inner)"/>

  <clipPath id="clipIcon">
    <rect x="48" y="48" width="928" height="928" rx="180" ry="180"/>
  </clipPath>
  <rect x="48" y="48" width="928" height="928" fill="url(#grid)" opacity="0.85" clip-path="url(#clipIcon)"/>

  <path d="M 78.00 512.00 L 78.43 512.00 L 78.87 512.00 L 79.30 512.00 L 79.74 512.00 L 80.17 512.00 L 80.61 512.00 L 81.04 512.00 L 81.47 512.00 L 81.91 512.00 L 82.34 512.00 L 82.78 512.00 L 83.21 512.00 L 83.64 512.00 L 84.08 512.00 L 84.51 512.00 L 84.95 512.00 L 85.38 512.00 L 85.82 512.00 L 86.25 512.00 L 86.68 512.00 L 87.12 512.00 L 87.55 512.00 L 87.99 512.00 L 88.42 512.00 L 88.86 512.00 L 89.29 512.00 L 89.72 512.00 L 90.16 512.00 L 90.59 512.00 L 91.03 512.00 L 91.46 512.00 L 91.89 512.00 L 92.33 512.00 L 92.76 512.00 L 93.20 512.00 L 93.63 512.00 L 94.07 512.00 L 94.50 512.00 L 94.93 512.00 L 95.37 512.00 L 95.80 512.00 L 96.24 512.00 L 96.67 512.00 L 97.11 512.00 L 97.54 512.00 L 97.97 512.00 L 98.41 512.00 L 98.84 512.00 L 99.28 512.00 L 99.71 512.00 L 100.15 512.00 L 100.58 512.00 L 101.01 512.00 L 101.45 512.00 L 101.88 512.00 L 102.32 512.00 L 102.75 512.00 L 103.18 512.00 L 103.62 512.00 L 104.05 512.00 L 104.49 512.00 L 104.92 512.00 L 105.36 512.00 L 105.79 512.00 L 106.22 512.00 L 106.66 512.00 L 107.09 512.00 L 107.53 512.00 L 107.96 512.00 L 108.40 512.00 L 108.83 512.00 L 109.26 512.00 L 109.70 512.00 L 110.13 512.00 L 110.57 512.00 L 111.00 512.00 L 111.43 512.00 L 111.87 512.00 L 112.30 512.00 L 112.74 512.00 L 113.17 512.00 L 113.61 512.00 L 114.04 512.00 L 114.47 512.00 L 114.91 512.00 L 115.34 512.00 L 115.78 512.00 L 116.21 512.00 L 116.65 512.00 L 117.08 512.00 L 117.51 512.00 L 117.95 512.00 L 118.38 512.00 L 118.82 512.00 L 119.25 512.00 L 119.68 512.00 L 120.12 512.00 L 120.55 512.00 L 120.99 512.00 L 121.42 512.00 L 121.86 512.00 L 122.29 512.00 L 122.72 512.00 L 123.16 512.00 L 123.59 512.00 L 124.03 512.00 L 124.46 512.00 L 124.90 512.00 L 125.33 512.00 L 125.76 512.00 L 126.20 512.00 L 126.63 512.00 L 127.07 512.00 L 127.50 512.00 L 127.93 512.00 L 128.37 512.00 L 128.80 512.00 L 129.24 512.00 L 129.67 512.00 L 130.11 512.00 L 130.54 512.00 L 130.97 512.00 L 131.41 512.00 L 131.84 512.00 L 132.28 512.00 L 132.71 512.00 L 133.15 512.00 L 133.58 512.00 L 134.01 512.00 L 134.45 512.00 L 134.88 512.00 L 135.32 512.00 L 135.75 512.00 L 136.19 512.00 L 136.62 512.00 L 137.05 512.00 L 137.49 512.00 L 137.92 512.00 L 138.36 512.00 L 138.79 512.00 L 139.22 512.00 L 139.66 512.00 L 140.09 512.00 L 140.53 512.00 L 140.96 512.00 L 141.40 512.00 L 141.83 512.00 L 142.26 512.00 L 142.70 512.00 L 143.13 512.00 L 143.57 512.00 L 144.00 512.00 L 144.44 512.00 L 144.87 512.00 L 145.30 512.00 L 145.74 512.00 L 146.17 512.00 L 146.61 512.00 L 147.04 512.00 L 147.47 512.00 L 147.91 512.00 L 148.34 512.00 L 148.78 512.00 L 149.21 512.00 L 149.65 512.00 L 150.08 512.00 L 150.51 512.00 L 150.95 512.00 L 151.38 512.00 L 151.82 512.00 L 152.25 512.00 L 152.69 512.00 L 153.12 512.00 L 153.55 512.00 L 153.99 512.00 L 154.42 512.00 L 154.86 512.00 L 155.29 512.00 L 155.72 512.00 L 156.16 512.00 L 156.59 512.00 L 157.03 512.00 L 157.46 512.00 L 157.90 512.00 L 158.33 512.00 L 158.76 512.00 L 159.20 512.00 L 159.63 512.00 L 160.07 512.00 L 160.50 512.00 L 160.94 512.00 L 161.37 512.00 L 161.80 512.00 L 162.24 512.00 L 162.67 512.00 L 163.11 512.00 L 163.54 512.00 L 163.97 512.00 L 164.41 512.00 L 164.84 512.00 L 165.28 512.00 L 165.71 512.00 L 166.15 512.00 L 166.58 512.00 L 167.01 512.00 L 167.45 512.00 L 167.88 512.00 L 168.32 512.00 L 168.75 512.00 L 169.19 512.00 L 169.62 512.00 L 170.05 512.00 L 170.49 512.00 L 170.92 512.00 L 171.36 512.00 L 171.79 512.00 L 172.23 512.00 L 172.66 512.00 L 173.09 512.00 L 173.53 512.00 L 173.96 512.00 L 174.40 512.00 L 174.83 512.00 L 175.26 512.00 L 175.70 512.00 L 176.13 512.00 L 176.57 512.00 L 177.00 512.00 L 177.44 512.00 L 177.87 512.00 L 178.30 512.00 L 178.74 512.00 L 179.17 512.00 L 179.61 512.00 L 180.04 512.00 L 180.48 512.00 L 180.91 512.00 L 181.34 512.00 L 181.78 512.00 L 182.21 512.00 L 182.65 512.00 L 183.08 512.00 L 183.51 512.00 L 183.95 512.00 L 184.38 512.00 L 184.82 512.00 L 185.25 512.00 L 185.69 512.00 L 186.12 512.00 L 186.55 512.00 L 186.99 512.00 L 187.42 512.00 L 187.86 512.00 L 188.29 512.00 L 188.73 512.00 L 189.16 512.00 L 189.59 512.00 L 190.03 512.00 L 190.46 512.00 L 190.90 512.00 L 191.33 512.00 L 191.76 512.00 L 192.20 512.00 L 192.63 512.00 L 193.07 512.00 L 193.50 512.00 L 193.94 512.00 L 194.37 512.00 L 194.80 512.00 L 195.24 512.00 L 195.67 512.00 L 196.11 512.00 L 196.54 512.00 L 196.98 512.00 L 197.41 512.00 L 197.84 512.00 L 198.28 512.00 L 198.71 512.00 L 199.15 512.00 L 199.58 512.00 L 200.02 512.00 L 200.45 512.00 L 200.88 512.00 L 201.32 512.00 L 201.75 512.00 L 202.19 512.00 L 202.62 512.00 L 203.05 512.00 L 203.49 512.00 L 203.92 512.00 L 204.36 512.00 L 204.79 512.00 L 205.23 512.00 L 205.66 512.00 L 206.09 512.00 L 206.53 512.00 L 206.96 512.00 L 207.40 512.00 L 207.83 512.00 L 208.27 512.00 L 208.70 512.00 L 209.13 512.00 L 209.57 512.00 L 210.00 512.00 L 210.44 512.00 L 210.87 512.00 L 211.30 512.00 L 211.74 512.00 L 212.17 512.00 L 212.61 512.00 L 213.04 512.00 L 213.48 512.00 L 213.91 512.00 L 214.34 512.00 L 214.78 512.00 L 215.21 512.00 L 215.65 512.00 L 216.08 512.00 L 216.52 512.00 L 216.95 512.00 L 217.38 512.00 L 217.82 512.00 L 218.25 512.00 L 218.69 512.00 L 219.12 512.00 L 219.55 512.00 L 219.99 512.00 L 220.42 512.00 L 220.86 512.00 L 221.29 512.00 L 221.73 512.00 L 222.16 512.00 L 222.59 512.00 L 223.03 512.00 L 223.46 512.00 L 223.90 512.00 L 224.33 512.00 L 224.77 512.00 L 225.20 512.00 L 225.63 512.00 L 226.07 512.00 L 226.50 512.00 L 226.94 512.00 L 227.37 512.00 L 227.80 512.00 L 228.24 512.00 L 228.67 512.00 L 229.11 512.00 L 229.54 512.00 L 229.98 512.00 L 230.41 512.00 L 230.84 512.00 L 231.28 512.00 L 231.71 512.00 L 232.15 512.00 L 232.58 512.00 L 233.02 512.00 L 233.45 512.00 L 233.88 512.00 L 234.32 512.00 L 234.75 512.00 L 235.19 512.00 L 235.62 512.00 L 236.06 512.00 L 236.49 512.00 L 236.92 511.99 L 237.36 511.98 L 237.79 511.97 L 238.23 511.95 L 238.66 511.93 L 239.09 511.90 L 239.53 511.86 L 239.96 511.82 L 240.40 511.77 L 240.83 511.71 L 241.27 511.64 L 241.70 511.56 L 242.13 511.46 L 242.57 511.36 L 243.00 511.24 L 243.44 511.12 L 243.87 510.97 L 244.31 510.82 L 244.74 510.65 L 245.17 510.46 L 245.61 510.25 L 246.04 510.03 L 246.48 509.80 L 246.91 509.54 L 247.34 509.27 L 247.78 508.97 L 248.21 508.66 L 248.65 508.33 L 249.08 507.97 L 249.52 507.60 L 249.95 507.20 L 250.38 506.78 L 250.82 506.34 L 251.25 505.87 L 251.69 505.38 L 252.12 504.87 L 252.56 504.33 L 252.99 503.77 L 253.42 503.18 L 253.86 502.57 L 254.29 501.93 L 254.73 501.26 L 255.16 500.57 L 255.59 499.84 L 256.03 499.10 L 256.46 498.32 L 256.90 497.52 L 257.33 496.69 L 257.77 495.83 L 258.20 494.94 L 258.63 494.02 L 259.07 493.07 L 259.50 492.10 L 259.94 491.09 L 260.37 490.06 L 260.81 489.00 L 261.24 487.90 L 261.67 486.78 L 262.11 485.63 L 262.54 484.45 L 262.98 483.23 L 263.41 481.99 L 263.84 480.72 L 264.28 479.42 L 264.71 478.09 L 265.15 476.73 L 265.58 475.34 L 266.02 473.92 L 266.45 472.48 L 266.88 471.00 L 267.32 469.49 L 267.75 467.96 L 268.19 466.40 L 268.62 464.81 L 269.06 463.19 L 269.49 461.55 L 269.92 459.87 L 270.36 458.17 L 270.79 456.45 L 271.23 454.69 L 271.66 452.91 L 272.10 451.11 L 272.53 449.28 L 272.96 447.43 L 273.40 445.55 L 273.83 443.65 L 274.27 441.72 L 274.70 439.77 L 275.13 437.80 L 275.57 435.81 L 276.00 433.80 L 276.44 431.76 L 276.87 429.71 L 277.31 427.63 L 277.74 425.54 L 278.17 423.43 L 278.61 421.30 L 279.04 419.15 L 279.48 416.98 L 279.91 414.81 L 280.35 412.61 L 280.78 410.40 L 281.21 408.18 L 281.65 405.94 L 282.08 403.69 L 282.52 401.43 L 282.95 399.16 L 283.38 396.88 L 283.82 394.59 L 284.25 392.30 L 284.69 389.99 L 285.12 387.68 L 285.56 385.36 L 285.99 383.03 L 286.42 380.70 L 286.86 378.37 L 287.29 376.04 L 287.73 373.70 L 288.16 371.36 L 288.60 369.02 L 289.03 366.68 L 289.46 364.35 L 289.90 362.01 L 290.33 359.68 L 290.77 357.36 L 291.20 355.03 L 291.63 352.72 L 292.07 350.41 L 292.50 348.11 L 292.94 345.82 L 293.37 343.53 L 293.81 341.26 L 294.24 339.00 L 294.67 336.75 L 295.11 334.52 L 295.54 332.29 L 295.98 330.09 L 296.41 327.90 L 296.85 325.72 L 297.28 323.57 L 297.71 321.43 L 298.15 319.31 L 298.58 317.21 L 299.02 315.13 L 299.45 313.08 L 299.88 311.05 L 300.32 309.04 L 300.75 307.05 L 301.19 305.10 L 301.62 303.16 L 302.06 301.26 L 302.49 299.38 L 302.92 297.53 L 303.36 295.71 L 303.79 293.92 L 304.23 292.17 L 304.66 290.44 L 305.10 288.75 L 305.53 287.09 L 305.96 285.46 L 306.40 283.87 L 306.83 282.32 L 307.27 280.80 L 307.70 279.31 L 308.14 277.87 L 308.57 276.46 L 309.00 275.09 L 309.44 273.77 L 309.87 272.48 L 310.31 271.23 L 310.74 270.03 L 311.17 268.86 L 311.61 267.74 L 312.04 266.66 L 312.48 265.63 L 312.91 264.62 L 313.35 263.63 L 313.78 262.64 L 314.21 261.65 L 314.65 260.67 L 315.08 259.70 L 315.52 258.74 L 315.95 257.78 L 316.39 256.82 L 316.82 255.87 L 317.25 254.93 L 317.69 254.00 L 318.12 253.07 L 318.56 252.14 L 318.99 251.23 L 319.42 250.32 L 319.86 249.41 L 320.29 248.52 L 320.73 247.63 L 321.16 246.74 L 321.60 245.86 L 322.03 244.99 L 322.46 244.13 L 322.90 243.27 L 323.33 242.41 L 323.77 241.57 L 324.20 240.73 L 324.64 239.90 L 325.07 239.07 L 325.50 238.25 L 325.94 237.44 L 326.37 236.63 L 326.81 235.83 L 327.24 235.04 L 327.67 234.25 L 328.11 233.47 L 328.54 232.70 L 328.98 231.94 L 329.41 231.18 L 329.85 230.43 L 330.28 229.68 L 330.71 228.94 L 331.15 228.21 L 331.58 227.49 L 332.02 226.77 L 332.45 226.06 L 332.89 225.35 L 333.32 224.66 L 333.75 223.97 L 334.19 223.28 L 334.62 222.61 L 335.06 221.94 L 335.49 221.28 L 335.92 220.62 L 336.36 219.97 L 336.79 219.33 L 337.23 218.70 L 337.66 218.07 L 338.10 217.45 L 338.53 216.84 L 338.96 216.23 L 339.40 215.64 L 339.83 215.05 L 340.27 214.46 L 340.70 213.89 L 341.14 213.32 L 341.57 212.75 L 342.00 212.20 L 342.44 211.65 L 342.87 211.11 L 343.31 210.58 L 343.74 210.05 L 344.18 209.54 L 344.61 209.02 L 345.04 208.52 L 345.48 208.03 L 345.91 207.54 L 346.35 207.06 L 346.78 206.58 L 347.21 206.11 L 347.65 205.66 L 348.08 205.20 L 348.52 204.76 L 348.95 204.32 L 349.39 203.89 L 349.82 203.47 L 350.25 203.06 L 350.69 202.65 L 351.12 202.25 L 351.56 201.86 L 351.99 201.47 L 352.43 201.10 L 352.86 200.73 L 353.29 200.37 L 353.73 200.01 L 354.16 199.67 L 354.60 199.33 L 355.03 198.99 L 355.46 198.67 L 355.90 198.35 L 356.33 198.05 L 356.77 197.74 L 357.20 197.45 L 357.64 197.17 L 358.07 196.89 L 358.50 196.62 L 358.94 196.35 L 359.37 196.10 L 359.81 195.85 L 360.24 195.61 L 360.68 195.38 L 361.11 195.15 L 361.54 194.94 L 361.98 194.73 L 362.41 194.53 L 362.85 194.33 L 363.28 194.15 L 363.71 193.97 L 364.15 193.80 L 364.58 193.63 L 365.02 193.48 L 365.45 193.33 L 365.89 193.19 L 366.32 193.06 L 366.75 192.94 L 367.19 192.82 L 367.62 192.71 L 368.06 192.61 L 368.49 192.52 L 368.93 192.43 L 369.36 192.35 L 369.79 192.28 L 370.23 192.22 L 370.66 192.17 L 371.10 192.12 L 371.53 192.08 L 371.96 192.05 L 372.40 192.02 L 372.83 192.01 L 373.27 192.00 L 373.70 192.00 L 374.14 192.01 L 374.57 192.02 L 375.00 192.05 L 375.44 192.08 L 375.87 192.12 L 376.31 192.16 L 376.74 192.22 L 377.18 192.28 L 377.61 192.35 L 378.04 192.42 L 378.48 192.51 L 378.91 192.60 L 379.35 192.70 L 379.78 192.81 L 380.22 192.93 L 380.65 193.05 L 381.08 193.18 L 381.52 193.32 L 381.95 193.47 L 382.39 193.62 L 382.82 193.79 L 383.25 193.96 L 383.69 194.13 L 384.12 194.32 L 384.56 194.51 L 384.99 194.71 L 385.43 194.92 L 385.86 195.14 L 386.29 195.36 L 386.73 195.59 L 387.16 195.83 L 387.60 196.08 L 388.03 196.34 L 388.47 196.60 L 388.90 196.87 L 389.33 197.15 L 389.77 197.43 L 390.20 197.72 L 390.64 198.02 L 391.07 198.33 L 391.50 198.65 L 391.94 198.97 L 392.37 199.30 L 392.81 199.64 L 393.24 199.99 L 393.68 200.34 L 394.11 200.70 L 394.54 201.07 L 394.98 201.45 L 395.41 201.83 L 395.85 202.22 L 396.28 202.62 L 396.72 203.03 L 397.15 203.44 L 397.58 203.86 L 398.02 204.29 L 398.45 204.73 L 398.89 205.17 L 399.32 205.62 L 399.75 206.08 L 400.19 206.55 L 400.62 207.02 L 401.06 207.50 L 401.49 207.99 L 401.93 208.49 L 402.36 208.99 L 402.79 209.50 L 403.23 210.02 L 403.66 210.54 L 404.10 211.07 L 404.53 211.61 L 404.97 212.16 L 405.40 212.72 L 405.83 213.28 L 406.27 213.85 L 406.70 214.42 L 407.14 215.00 L 407.57 215.59 L 408.01 216.19 L 408.44 216.80 L 408.87 217.41 L 409.31 218.03 L 409.74 218.65 L 410.18 219.29 L 410.61 219.93 L 411.04 220.57 L 411.48 221.23 L 411.91 221.89 L 412.35 222.56 L 412.78 223.23 L 413.22 223.92 L 413.65 224.61 L 414.08 225.30 L 414.52 226.01 L 414.95 226.72 L 415.39 227.43 L 415.82 228.16 L 416.26 228.89 L 416.69 229.63 L 417.12 230.37 L 417.56 231.12 L 417.99 231.88 L 418.43 232.65 L 418.86 233.42 L 419.29 234.20 L 419.73 234.98 L 420.16 235.78 L 420.60 236.58 L 421.03 237.38 L 421.47 238.19 L 421.90 239.01 L 422.33 239.84 L 422.77 240.67 L 423.20 241.51 L 423.64 242.35 L 424.07 243.21 L 424.51 244.06 L 424.94 244.93 L 425.37 245.80 L 425.81 246.68 L 426.24 247.56 L 426.68 248.45 L 427.11 249.35 L 427.54 250.25 L 427.98 251.16 L 428.41 252.08 L 428.85 253.00 L 429.28 253.93 L 429.72 254.87 L 430.15 255.81 L 430.58 256.75 L 431.02 257.71 L 431.45 258.67 L 431.89 259.63 L 432.32 260.61 L 432.76 261.58 L 433.19 262.57 L 433.62 263.56 L 434.06 264.55 L 434.49 265.56 L 434.93 266.56 L 435.36 267.58 L 435.79 268.60 L 436.23 269.63 L 436.66 270.66 L 437.10 271.69 L 437.53 272.74 L 437.97 273.79 L 438.40 274.84 L 438.83 275.90 L 439.27 276.97 L 439.70 278.04 L 440.14 279.12 L 440.57 280.20 L 441.01 281.29 L 441.44 282.39 L 441.87 283.49 L 442.31 284.59 L 442.74 285.71 L 443.18 286.82 L 443.61 287.95 L 444.05 289.07 L 444.48 290.21 L 444.91 291.35 L 445.35 292.49 L 445.78 293.64 L 446.22 294.79 L 446.65 295.95 L 447.08 297.12 L 447.52 298.29 L 447.95 299.46 L 448.39 300.64 L 448.82 301.83 L 449.26 303.02 L 449.69 304.22 L 450.12 305.42 L 450.56 306.62 L 450.99 307.84 L 451.43 309.05 L 451.86 310.27 L 452.30 311.50 L 452.73 312.73 L 453.16 313.96 L 453.60 315.20 L 454.03 316.45 L 454.47 317.70 L 454.90 318.95 L 455.33 320.21 L 455.77 321.48 L 456.20 322.75 L 456.64 324.02 L 457.07 325.30 L 457.51 326.58 L 457.94 327.86 L 458.37 329.16 L 458.81 330.45 L 459.24 331.75 L 459.68 333.06 L 460.11 334.36 L 460.55 335.68 L 460.98 336.99 L 461.41 338.32 L 461.85 339.64 L 462.28 340.97 L 462.72 342.31 L 463.15 343.64 L 463.58 344.99 L 464.02 346.33 L 464.45 347.68 L 464.89 349.04 L 465.32 350.39 L 465.76 351.76 L 466.19 353.12 L 466.62 354.49 L 467.06 355.87 L 467.49 357.24 L 467.93 358.62 L 468.36 360.01 L 468.80 361.40 L 469.23 362.79 L 469.66 364.19 L 470.10 365.59 L 470.53 366.99 L 470.97 368.40 L 471.40 369.81 L 471.83 371.22 L 472.27 372.64 L 472.70 374.06 L 473.14 375.48 L 473.57 376.91 L 474.01 378.34 L 474.44 379.77 L 474.87 381.21 L 475.31 382.65 L 475.74 384.09 L 476.18 385.54 L 476.61 386.99 L 477.05 388.44 L 477.48 389.89 L 477.91 391.35 L 478.35 392.81 L 478.78 394.28 L 479.22 395.74 L 479.65 397.21 L 480.09 398.68 L 480.52 400.16 L 480.95 401.64 L 481.39 403.12 L 481.82 404.60 L 482.26 406.09 L 482.69 407.58 L 483.12 409.07 L 483.56 410.56 L 483.99 412.06 L 484.43 413.55 L 484.86 415.05 L 485.30 416.56 L 485.73 418.06 L 486.16 419.57 L 486.60 421.08 L 487.03 422.59 L 487.47 424.11 L 487.90 425.62 L 488.34 427.14 L 488.77 428.66 L 489.20 430.18 L 489.64 431.71 L 490.07 433.24 L 490.51 434.76 L 490.94 436.29 L 491.37 437.83 L 491.81 439.36 L 492.24 440.90 L 492.68 442.43 L 493.11 443.97 L 493.55 445.51 L 493.98 447.05 L 494.41 448.60 L 494.85 450.14 L 495.28 451.69 L 495.72 453.24 L 496.15 454.79 L 496.59 456.34 L 497.02 457.89 L 497.45 459.45 L 497.89 461.00 L 498.32 462.56 L 498.76 464.12 L 499.19 465.67 L 499.62 467.23 L 500.06 468.80 L 500.49 470.36 L 500.93 471.92 L 501.36 473.48 L 501.80 475.05 L 502.23 476.61 L 502.66 478.18 L 503.10 479.75 L 503.53 481.32 L 503.97 482.89 L 504.40 484.46 L 504.84 486.03 L 505.27 487.60 L 505.70 489.17 L 506.14 490.74 L 506.57 492.31 L 507.01 493.89 L 507.44 495.46 L 507.87 497.03 L 508.31 498.61 L 508.74 500.18 L 509.18 501.76 L 509.61 503.33 L 510.05 504.91 L 510.48 506.48 L 510.91 508.06 L 511.35 509.64 L 511.78 511.21 L 512.22 512.79 L 512.65 514.36 L 513.09 515.94 L 513.52 517.52 L 513.95 519.09 L 514.39 520.67 L 514.82 522.24 L 515.26 523.82 L 515.69 525.39 L 516.13 526.97 L 516.56 528.54 L 516.99 530.11 L 517.43 531.69 L 517.86 533.26 L 518.30 534.83 L 518.73 536.40 L 519.16 537.97 L 519.60 539.54 L 520.03 541.11 L 520.47 542.68 L 520.90 544.25 L 521.34 545.82 L 521.77 547.39 L 522.20 548.95 L 522.64 550.52 L 523.07 552.08 L 523.51 553.64 L 523.94 555.20 L 524.38 556.77 L 524.81 558.33 L 525.24 559.88 L 525.68 561.44 L 526.11 563.00 L 526.55 564.55 L 526.98 566.11 L 527.41 567.66 L 527.85 569.21 L 528.28 570.76 L 528.72 572.31 L 529.15 573.86 L 529.59 575.40 L 530.02 576.95 L 530.45 578.49 L 530.89 580.03 L 531.32 581.57 L 531.76 583.10 L 532.19 584.64 L 532.63 586.17 L 533.06 587.71 L 533.49 589.24 L 533.93 590.76 L 534.36 592.29 L 534.80 593.82 L 535.23 595.34 L 535.66 596.86 L 536.10 598.38 L 536.53 599.89 L 536.97 601.41 L 537.40 602.92 L 537.84 604.43 L 538.27 605.94 L 538.70 607.44 L 539.14 608.95 L 539.57 610.45 L 540.01 611.94 L 540.44 613.44 L 540.88 614.93 L 541.31 616.42 L 541.74 617.91 L 542.18 619.40 L 542.61 620.88 L 543.05 622.36 L 543.48 623.84 L 543.91 625.32 L 544.35 626.79 L 544.78 628.26 L 545.22 629.72 L 545.65 631.19 L 546.09 632.65 L 546.52 634.11 L 546.95 635.56 L 547.39 637.01 L 547.82 638.46 L 548.26 639.91 L 548.69 641.35 L 549.13 642.79 L 549.56 644.23 L 549.99 645.66 L 550.43 647.09 L 550.86 648.52 L 551.30 649.94 L 551.73 651.36 L 552.17 652.78 L 552.60 654.19 L 553.03 655.60 L 553.47 657.01 L 553.90 658.41 L 554.34 659.81 L 554.77 661.21 L 555.20 662.60 L 555.64 663.99 L 556.07 665.38 L 556.51 666.76 L 556.94 668.13 L 557.38 669.51 L 557.81 670.88 L 558.24 672.24 L 558.68 673.61 L 559.11 674.96 L 559.55 676.32 L 559.98 677.67 L 560.42 679.01 L 560.85 680.36 L 561.28 681.69 L 561.72 683.03 L 562.15 684.36 L 562.59 685.68 L 563.02 687.01 L 563.45 688.32 L 563.89 689.64 L 564.32 690.94 L 564.76 692.25 L 565.19 693.55 L 565.63 694.84 L 566.06 696.14 L 566.49 697.42 L 566.93 698.70 L 567.36 699.98 L 567.80 701.25 L 568.23 702.52 L 568.67 703.79 L 569.10 705.05 L 569.53 706.30 L 569.97 707.55 L 570.40 708.80 L 570.84 710.04 L 571.27 711.27 L 571.70 712.50 L 572.14 713.73 L 572.57 714.95 L 573.01 716.16 L 573.44 717.38 L 573.88 718.58 L 574.31 719.78 L 574.74 720.98 L 575.18 722.17 L 575.61 723.36 L 576.05 724.54 L 576.48 725.71 L 576.92 726.88 L 577.35 728.05 L 577.78 729.21 L 578.22 730.36 L 578.65 731.51 L 579.09 732.65 L 579.52 733.79 L 579.95 734.93 L 580.39 736.05 L 580.82 737.18 L 581.26 738.29 L 581.69 739.41 L 582.13 740.51 L 582.56 741.61 L 582.99 742.71 L 583.43 743.80 L 583.86 744.88 L 584.30 745.96 L 584.73 747.03 L 585.17 748.10 L 585.60 749.16 L 586.03 750.21 L 586.47 751.26 L 586.90 752.31 L 587.34 753.34 L 587.77 754.37 L 588.21 755.40 L 588.64 756.42 L 589.07 757.44 L 589.51 758.44 L 589.94 759.45 L 590.38 760.44 L 590.81 761.43 L 591.24 762.42 L 591.68 763.39 L 592.11 764.37 L 592.55 765.33 L 592.98 766.29 L 593.42 767.25 L 593.85 768.19 L 594.28 769.13 L 594.72 770.07 L 595.15 771.00 L 595.59 771.92 L 596.02 772.84 L 596.46 773.75 L 596.89 774.65 L 597.32 775.55 L 597.76 776.44 L 598.19 777.32 L 598.63 778.20 L 599.06 779.07 L 599.49 779.94 L 599.93 780.79 L 600.36 781.65 L 600.80 782.49 L 601.23 783.33 L 601.67 784.16 L 602.10 784.99 L 602.53 785.81 L 602.97 786.62 L 603.40 787.42 L 603.84 788.22 L 604.27 789.02 L 604.71 789.80 L 605.14 790.58 L 605.57 791.35 L 606.01 792.12 L 606.44 792.88 L 606.88 793.63 L 607.31 794.37 L 607.74 795.11 L 608.18 795.84 L 608.61 796.57 L 609.05 797.28 L 609.48 797.99 L 609.92 798.70 L 610.35 799.39 L 610.78 800.08 L 611.22 800.77 L 611.65 801.44 L 612.09 802.11 L 612.52 802.77 L 612.96 803.43 L 613.39 804.07 L 613.82 804.71 L 614.26 805.35 L 614.69 805.97 L 615.13 806.59 L 615.56 807.20 L 615.99 807.81 L 616.43 808.41 L 616.86 809.00 L 617.30 809.58 L 617.73 810.15 L 618.17 810.72 L 618.60 811.28 L 619.03 811.84 L 619.47 812.39 L 619.90 812.93 L 620.34 813.46 L 620.77 813.98 L 621.21 814.50 L 621.64 815.01 L 622.07 815.51 L 622.51 816.01 L 622.94 816.50 L 623.38 816.98 L 623.81 817.45 L 624.25 817.92 L 624.68 818.38 L 625.11 818.83 L 625.55 819.27 L 625.98 819.71 L 626.42 820.14 L 626.85 820.56 L 627.28 820.97 L 627.72 821.38 L 628.15 821.78 L 628.59 822.17 L 629.02 822.55 L 629.46 822.93 L 629.89 823.30 L 630.32 823.66 L 630.76 824.01 L 631.19 824.36 L 631.63 824.70 L 632.06 825.03 L 632.50 825.35 L 632.93 825.67 L 633.36 825.98 L 633.80 826.28 L 634.23 826.57 L 634.67 826.85 L 635.10 827.13 L 635.53 827.40 L 635.97 827.66 L 636.40 827.92 L 636.84 828.17 L 637.27 828.41 L 637.71 828.64 L 638.14 828.86 L 638.57 829.08 L 639.01 829.29 L 639.44 829.49 L 639.88 829.68 L 640.31 829.87 L 640.75 830.04 L 641.18 830.21 L 641.61 830.38 L 642.05 830.53 L 642.48 830.68 L 642.92 830.82 L 643.35 830.95 L 643.78 831.07 L 644.22 831.19 L 644.65 831.30 L 645.09 831.40 L 645.52 831.49 L 645.96 831.58 L 646.39 831.65 L 646.82 831.72 L 647.26 831.78 L 647.69 831.84 L 648.13 831.88 L 648.56 831.92 L 649.00 831.95 L 649.43 831.98 L 649.86 831.99 L 650.30 832.00 L 650.73 832.00 L 651.17 831.99 L 651.60 831.98 L 652.04 831.95 L 652.47 831.92 L 652.90 831.88 L 653.34 831.83 L 653.77 831.78 L 654.21 831.72 L 654.64 831.65 L 655.07 831.57 L 655.51 831.48 L 655.94 831.39 L 656.38 831.29 L 656.81 831.18 L 657.25 831.06 L 657.68 830.94 L 658.11 830.81 L 658.55 830.67 L 658.98 830.52 L 659.42 830.37 L 659.85 830.20 L 660.29 830.03 L 660.72 829.85 L 661.15 829.67 L 661.59 829.47 L 662.02 829.27 L 662.46 829.06 L 662.89 828.85 L 663.32 828.62 L 663.76 828.39 L 664.19 828.15 L 664.63 827.90 L 665.06 827.65 L 665.50 827.38 L 665.93 827.11 L 666.36 826.83 L 666.80 826.55 L 667.23 826.26 L 667.67 825.95 L 668.10 825.65 L 668.54 825.33 L 668.97 825.01 L 669.40 824.67 L 669.84 824.33 L 670.27 823.99 L 670.71 823.63 L 671.14 823.27 L 671.57 822.90 L 672.01 822.53 L 672.44 822.14 L 672.88 821.75 L 673.31 821.35 L 673.75 820.94 L 674.18 820.53 L 674.61 820.11 L 675.05 819.68 L 675.48 819.24 L 675.92 818.80 L 676.35 818.34 L 676.79 817.89 L 677.22 817.42 L 677.65 816.94 L 678.09 816.46 L 678.52 815.97 L 678.96 815.48 L 679.39 814.98 L 679.82 814.46 L 680.26 813.95 L 680.69 813.42 L 681.13 812.89 L 681.56 812.35 L 682.00 811.80 L 682.43 811.25 L 682.86 810.68 L 683.30 810.11 L 683.73 809.54 L 684.17 808.95 L 684.60 808.36 L 685.04 807.77 L 685.47 807.16 L 685.90 806.55 L 686.34 805.93 L 686.77 805.30 L 687.21 804.67 L 687.64 804.03 L 688.08 803.38 L 688.51 802.72 L 688.94 802.06 L 689.38 801.39 L 689.81 800.72 L 690.25 800.03 L 690.68 799.34 L 691.11 798.65 L 691.55 797.94 L 691.98 797.23 L 692.42 796.51 L 692.85 795.79 L 693.29 795.06 L 693.72 794.32 L 694.15 793.57 L 694.59 792.82 L 695.02 792.06 L 695.46 791.30 L 695.89 790.53 L 696.33 789.75 L 696.76 788.96 L 697.19 788.17 L 697.63 787.37 L 698.06 786.56 L 698.50 785.75 L 698.93 784.93 L 699.36 784.10 L 699.80 783.27 L 700.23 782.43 L 700.67 781.59 L 701.10 780.73 L 701.54 779.87 L 701.97 779.01 L 702.40 778.14 L 702.84 777.26 L 703.27 776.37 L 703.71 775.48 L 704.14 774.59 L 704.58 773.68 L 705.01 772.77 L 705.44 771.86 L 705.88 770.93 L 706.31 770.00 L 706.75 769.07 L 707.18 768.13 L 707.61 767.18 L 708.05 766.22 L 708.48 765.26 L 708.92 764.30 L 709.35 763.33 L 709.79 762.35 L 710.22 761.36 L 710.65 760.37 L 711.09 759.38 L 711.52 758.37 L 711.96 757.34 L 712.39 756.26 L 712.83 755.14 L 713.26 753.97 L 713.69 752.77 L 714.13 751.52 L 714.56 750.23 L 715.00 748.91 L 715.43 747.54 L 715.86 746.13 L 716.30 744.69 L 716.73 743.20 L 717.17 741.68 L 717.60 740.13 L 718.04 738.54 L 718.47 736.91 L 718.90 735.25 L 719.34 733.56 L 719.77 731.83 L 720.21 730.08 L 720.64 728.29 L 721.08 726.47 L 721.51 724.62 L 721.94 722.74 L 722.38 720.84 L 722.81 718.90 L 723.25 716.95 L 723.68 714.96 L 724.12 712.95 L 724.55 710.92 L 724.98 708.87 L 725.42 706.79 L 725.85 704.69 L 726.29 702.57 L 726.72 700.43 L 727.15 698.28 L 727.59 696.10 L 728.02 693.91 L 728.46 691.71 L 728.89 689.48 L 729.33 687.25 L 729.76 685.00 L 730.19 682.74 L 730.63 680.47 L 731.06 678.18 L 731.50 675.89 L 731.93 673.59 L 732.37 671.28 L 732.80 668.97 L 733.23 666.64 L 733.67 664.32 L 734.10 661.99 L 734.54 659.65 L 734.97 657.32 L 735.40 654.98 L 735.84 652.64 L 736.27 650.30 L 736.71 647.96 L 737.14 645.63 L 737.58 643.30 L 738.01 640.97 L 738.44 638.64 L 738.88 636.32 L 739.31 634.01 L 739.75 631.70 L 740.18 629.41 L 740.62 627.12 L 741.05 624.84 L 741.48 622.57 L 741.92 620.31 L 742.35 618.06 L 742.79 615.82 L 743.22 613.60 L 743.65 611.39 L 744.09 609.19 L 744.52 607.02 L 744.96 604.85 L 745.39 602.70 L 745.83 600.57 L 746.26 598.46 L 746.69 596.37 L 747.13 594.29 L 747.56 592.24 L 748.00 590.20 L 748.43 588.19 L 748.87 586.20 L 749.30 584.23 L 749.73 582.28 L 750.17 580.35 L 750.60 578.45 L 751.04 576.57 L 751.47 574.72 L 751.90 572.89 L 752.34 571.09 L 752.77 569.31 L 753.21 567.55 L 753.64 565.83 L 754.08 564.13 L 754.51 562.45 L 754.94 560.81 L 755.38 559.19 L 755.81 557.60 L 756.25 556.04 L 756.68 554.51 L 757.12 553.00 L 757.55 551.52 L 757.98 550.08 L 758.42 548.66 L 758.85 547.27 L 759.29 545.91 L 759.72 544.58 L 760.16 543.28 L 760.59 542.01 L 761.02 540.77 L 761.46 539.55 L 761.89 538.37 L 762.33 537.22 L 762.76 536.10 L 763.19 535.00 L 763.63 533.94 L 764.06 532.91 L 764.50 531.90 L 764.93 530.93 L 765.37 529.98 L 765.80 529.06 L 766.23 528.17 L 766.67 527.31 L 767.10 526.48 L 767.54 525.68 L 767.97 524.90 L 768.41 524.16 L 768.84 523.43 L 769.27 522.74 L 769.71 522.07 L 770.14 521.43 L 770.58 520.82 L 771.01 520.23 L 771.44 519.67 L 771.88 519.13 L 772.31 518.62 L 772.75 518.13 L 773.18 517.66 L 773.62 517.22 L 774.05 516.80 L 774.48 516.40 L 774.92 516.03 L 775.35 515.67 L 775.79 515.34 L 776.22 515.03 L 776.66 514.73 L 777.09 514.46 L 777.52 514.20 L 777.96 513.97 L 778.39 513.75 L 778.83 513.54 L 779.26 513.35 L 779.69 513.18 L 780.13 513.03 L 780.56 512.88 L 781.00 512.76 L 781.43 512.64 L 781.87 512.54 L 782.30 512.44 L 782.73 512.36 L 783.17 512.29 L 783.60 512.23 L 784.04 512.18 L 784.47 512.14 L 784.91 512.10 L 785.34 512.07 L 785.77 512.05 L 786.21 512.03 L 786.64 512.02 L 787.08 512.01 L 787.51 512.00 L 787.94 512.00 L 788.38 512.00 L 788.81 512.00 L 789.25 512.00 L 789.68 512.00 L 790.12 512.00 L 790.55 512.00 L 790.98 512.00 L 791.42 512.00 L 791.85 512.00 L 792.29 512.00 L 792.72 512.00 L 793.16 512.00 L 793.59 512.00 L 794.02 512.00 L 794.46 512.00 L 794.89 512.00 L 795.33 512.00 L 795.76 512.00 L 796.20 512.00 L 796.63 512.00 L 797.06 512.00 L 797.50 512.00 L 797.93 512.00 L 798.37 512.00 L 798.80 512.00 L 799.23 512.00 L 799.67 512.00 L 800.10 512.00 L 800.54 512.00 L 800.97 512.00 L 801.41 512.00 L 801.84 512.00 L 802.27 512.00 L 802.71 512.00 L 803.14 512.00 L 803.58 512.00 L 804.01 512.00 L 804.45 512.00 L 804.88 512.00 L 805.31 512.00 L 805.75 512.00 L 806.18 512.00 L 806.62 512.00 L 807.05 512.00 L 807.48 512.00 L 807.92 512.00 L 808.35 512.00 L 808.79 512.00 L 809.22 512.00 L 809.66 512.00 L 810.09 512.00 L 810.52 512.00 L 810.96 512.00 L 811.39 512.00 L 811.83 512.00 L 812.26 512.00 L 812.70 512.00 L 813.13 512.00 L 813.56 512.00 L 814.00 512.00 L 814.43 512.00 L 814.87 512.00 L 815.30 512.00 L 815.73 512.00 L 816.17 512.00 L 816.60 512.00 L 817.04 512.00 L 817.47 512.00 L 817.91 512.00 L 818.34 512.00 L 818.77 512.00 L 819.21 512.00 L 819.64 512.00 L 820.08 512.00 L 820.51 512.00 L 820.95 512.00 L 821.38 512.00 L 821.81 512.00 L 822.25 512.00 L 822.68 512.00 L 823.12 512.00 L 823.55 512.00 L 823.98 512.00 L 824.42 512.00 L 824.85 512.00 L 825.29 512.00 L 825.72 512.00 L 826.16 512.00 L 826.59 512.00 L 827.02 512.00 L 827.46 512.00 L 827.89 512.00 L 828.33 512.00 L 828.76 512.00 L 829.20 512.00 L 829.63 512.00 L 830.06 512.00 L 830.50 512.00 L 830.93 512.00 L 831.37 512.00 L 831.80 512.00 L 832.24 512.00 L 832.67 512.00 L 833.10 512.00 L 833.54 512.00 L 833.97 512.00 L 834.41 512.00 L 834.84 512.00 L 835.27 512.00 L 835.71 512.00 L 836.14 512.00 L 836.58 512.00 L 837.01 512.00 L 837.45 512.00 L 837.88 512.00 L 838.31 512.00 L 838.75 512.00 L 839.18 512.00 L 839.62 512.00 L 840.05 512.00 L 840.49 512.00 L 840.92 512.00 L 841.35 512.00 L 841.79 512.00 L 842.22 512.00 L 842.66 512.00 L 843.09 512.00 L 843.52 512.00 L 843.96 512.00 L 844.39 512.00 L 844.83 512.00 L 845.26 512.00 L 845.70 512.00 L 846.13 512.00 L 846.56 512.00 L 847.00 512.00 L 847.43 512.00 L 847.87 512.00 L 848.30 512.00 L 848.74 512.00 L 849.17 512.00 L 849.60 512.00 L 850.04 512.00 L 850.47 512.00 L 850.91 512.00 L 851.34 512.00 L 851.77 512.00 L 852.21 512.00 L 852.64 512.00 L 853.08 512.00 L 853.51 512.00 L 853.95 512.00 L 854.38 512.00 L 854.81 512.00 L 855.25 512.00 L 855.68 512.00 L 856.12 512.00 L 856.55 512.00 L 856.99 512.00 L 857.42 512.00 L 857.85 512.00 L 858.29 512.00 L 858.72 512.00 L 859.16 512.00 L 859.59 512.00 L 860.03 512.00 L 860.46 512.00 L 860.89 512.00 L 861.33 512.00 L 861.76 512.00 L 862.20 512.00 L 862.63 512.00 L 863.06 512.00 L 863.50 512.00 L 863.93 512.00 L 864.37 512.00 L 864.80 512.00 L 865.24 512.00 L 865.67 512.00 L 866.10 512.00 L 866.54 512.00 L 866.97 512.00 L 867.41 512.00 L 867.84 512.00 L 868.28 512.00 L 868.71 512.00 L 869.14 512.00 L 869.58 512.00 L 870.01 512.00 L 870.45 512.00 L 870.88 512.00 L 871.31 512.00 L 871.75 512.00 L 872.18 512.00 L 872.62 512.00 L 873.05 512.00 L 873.49 512.00 L 873.92 512.00 L 874.35 512.00 L 874.79 512.00 L 875.22 512.00 L 875.66 512.00 L 876.09 512.00 L 876.53 512.00 L 876.96 512.00 L 877.39 512.00 L 877.83 512.00 L 878.26 512.00 L 878.70 512.00 L 879.13 512.00 L 879.56 512.00 L 880.00 512.00 L 880.43 512.00 L 880.87 512.00 L 881.30 512.00 L 881.74 512.00 L 882.17 512.00 L 882.60 512.00 L 883.04 512.00 L 883.47 512.00 L 883.91 512.00 L 884.34 512.00 L 884.78 512.00 L 885.21 512.00 L 885.64 512.00 L 886.08 512.00 L 886.51 512.00 L 886.95 512.00 L 887.38 512.00 L 887.81 512.00 L 888.25 512.00 L 888.68 512.00 L 889.12 512.00 L 889.55 512.00 L 889.99 512.00 L 890.42 512.00 L 890.85 512.00 L 891.29 512.00 L 891.72 512.00 L 892.16 512.00 L 892.59 512.00 L 893.03 512.00 L 893.46 512.00 L 893.89 512.00 L 894.33 512.00 L 894.76 512.00 L 895.20 512.00 L 895.63 512.00 L 896.07 512.00 L 896.50 512.00 L 896.93 512.00 L 897.37 512.00 L 897.80 512.00 L 898.24 512.00 L 898.67 512.00 L 899.10 512.00 L 899.54 512.00 L 899.97 512.00 L 900.41 512.00 L 900.84 512.00 L 901.28 512.00 L 901.71 512.00 L 902.14 512.00 L 902.58 512.00 L 903.01 512.00 L 903.45 512.00 L 903.88 512.00 L 904.32 512.00 L 904.75 512.00 L 905.18 512.00 L 905.62 512.00 L 906.05 512.00 L 906.49 512.00 L 906.92 512.00 L 907.35 512.00 L 907.79 512.00 L 908.22 512.00 L 908.66 512.00 L 909.09 512.00 L 909.53 512.00 L 909.96 512.00 L 910.39 512.00 L 910.83 512.00 L 911.26 512.00 L 911.70 512.00 L 912.13 512.00 L 912.57 512.00 L 913.00 512.00 L 913.43 512.00 L 913.87 512.00 L 914.30 512.00 L 914.74 512.00 L 915.17 512.00 L 915.60 512.00 L 916.04 512.00 L 916.47 512.00 L 916.91 512.00 L 917.34 512.00 L 917.78 512.00 L 918.21 512.00 L 918.64 512.00 L 919.08 512.00 L 919.51 512.00 L 919.95 512.00 L 920.38 512.00 L 920.82 512.00 L 921.25 512.00 L 921.68 512.00 L 922.12 512.00 L 922.55 512.00 L 922.99 512.00 L 923.42 512.00 L 923.85 512.00 L 924.29 512.00 L 924.72 512.00 L 925.16 512.00 L 925.59 512.00 L 926.03 512.00 L 926.46 512.00 L 926.89 512.00 L 927.33 512.00 L 927.76 512.00 L 928.20 512.00 L 928.63 512.00 L 929.07 512.00 L 929.50 512.00 L 929.93 512.00 L 930.37 512.00 L 930.80 512.00 L 931.24 512.00 L 931.67 512.00 L 932.11 512.00 L 932.54 512.00 L 932.97 512.00 L 933.41 512.00 L 933.84 512.00 L 934.28 512.00 L 934.71 512.00 L 935.14 512.00 L 935.58 512.00 L 936.01 512.00 L 936.45 512.00 L 936.88 512.00 L 937.32 512.00 L 937.75 512.00 L 938.18 512.00 L 938.62 512.00 L 939.05 512.00 L 939.49 512.00 L 939.92 512.00 L 940.36 512.00 L 940.79 512.00 L 941.22 512.00 L 941.66 512.00 L 942.09 512.00 L 942.53 512.00 L 942.96 512.00 L 943.39 512.00 L 943.83 512.00 L 944.26 512.00 L 944.70 512.00 L 945.13 512.00 L 945.57 512.00 L 946.00 512.00"
        fill="none"
        stroke="url(#violet)"
        stroke-width="36"
        stroke-linecap="round"
        stroke-linejoin="round"
        filter="url(#neonGlow)"/>
</svg>
